{
  "source": "C:\\Users\\Peter\\Desktop\\stuff\\MIUN\\quantitative_research\\video_compression\\videos\\BVI-HD\\PlasmaAveragePan_1920x1080_60fps.mp4",
  "output": "C:\\Users\\Peter\\Desktop\\stuff\\MIUN\\quantitative_research\\video_compression\\compressed_videos\\BVI-HD\\vp9\\12\\PlasmaAveragePan_1920x1080_60fps_vp9.webm",
  "codec": "vp9",
  "ok": "Input #0, mov,mp4,m4a,3gp,3g2,mj2, from 'C:\\Users\\Peter\\Desktop\\stuff\\MIUN\\quantitative_research\\video_compression\\videos\\BVI-HD\\PlasmaAveragePan_1920x1080_60fps.mp4':\n  Metadata:\n    major_brand     : isom\n    minor_version   : 512\n    compatible_brands: isomiso2avc1mp41\n    encoder         : Lavf54.28.101\n  Duration: 00:00:05.00, start: 0.000000, bitrate: 73730 kb/s\n  Stream #0:0[0x1](und): Video: h264 (High 4:4:4 Predictive) (avc1 / 0x31637661), yuv420p(progressive), 1920x1080, 73727 kb/s, 60 fps, 60 tbr, 60 tbn (default)\n    Metadata:\n      handler_name    : VideoHandler\n      vendor_id       : [0][0][0][0]\n[out#0/webm @ 0000027f1dec9540] Codec AVOption b:a (set bitrate (in bits/s)) has not been used for any stream. The most likely reason is either wrong type (e.g. a video option with no video streams) or that it is a private option of some decoder which was not actually used for any stream.\nStream mapping:\n  Stream #0:0 -> #0:0 (h264 (native) -> vp9 (libvpx-vp9))\nPress [q] to stop, [?] for help\n[libvpx-vp9 @ 0000027f1e6e2c40] v1.15.2-100-g40561f514\nOutput #0, webm, to 'C:\\Users\\Peter\\Desktop\\stuff\\MIUN\\quantitative_research\\video_compression\\compressed_videos\\BVI-HD\\vp9\\12\\PlasmaAveragePan_1920x1080_60fps_vp9.webm':\n  Metadata:\n    major_brand     : isom\n    minor_version   : 512\n    compatible_brands: isomiso2avc1mp41\n    encoder         : Lavf62.3.100\n  Stream #0:0(und): Video: vp9, yuv420p(tv, progressive), 1920x1080, q=2-31, 12000 kb/s, 60 fps, 1k tbn (default)\n    Metadata:\n      encoder         : Lavc62.11.100 libvpx-vp9\n      handler_name    : VideoHandler\n      vendor_id       : [0][0][0][0]\n    Side data:\n      cpb: bitrate max/min/avg: 0/0/0 buffer size: 12000000 vbv_delay: N/A\nframe=    3 fps=0.0 q=44.0 size=       1KiB time=00:00:00.05 bitrate= 101.3kbits/s speed=0.096x elapsed=0:00:00.52    \nframe=   11 fps= 11 q=25.0 size=       1KiB time=00:00:00.18 bitrate=  27.6kbits/s speed=0.178x elapsed=0:00:01.02    \nframe=   17 fps= 11 q=23.0 size=       1KiB time=00:00:00.28 bitrate=  17.9kbits/s speed=0.184x elapsed=0:00:01.53    \nframe=   23 fps= 11 q=24.0 size=       1KiB time=00:00:00.38 bitrate=  13.2kbits/s speed=0.185x elapsed=0:00:02.07    \nframe=   30 fps= 12 q=24.0 size=       1KiB time=00:00:00.50 bitrate=  10.1kbits/s speed=0.193x elapsed=0:00:02.59    \nframe=   37 fps= 12 q=7.0 size=       1KiB time=00:00:00.61 bitrate=   8.2kbits/s speed=0.198x elapsed=0:00:03.11    \nframe=   43 fps= 12 q=26.0 size=       1KiB time=00:00:00.71 bitrate=   7.1kbits/s speed=0.197x elapsed=0:00:03.63    \nframe=   49 fps= 12 q=8.0 size=       1KiB time=00:00:00.81 bitrate=   6.2kbits/s speed=0.196x elapsed=0:00:04.15    \nframe=   56 fps= 12 q=26.0 size=       1KiB time=00:00:00.93 bitrate=   5.4kbits/s speed= 0.2x elapsed=0:00:04.66    \nframe=   62 fps= 12 q=25.0 size=       1KiB time=00:00:01.03 bitrate=   4.9kbits/s speed=0.199x elapsed=0:00:05.18    \nframe=   70 fps= 12 q=26.0 size=       1KiB time=00:00:01.16 bitrate=   4.3kbits/s speed=0.205x elapsed=0:00:05.69    \nframe=   77 fps= 12 q=28.0 size=       1KiB time=00:00:01.26 bitrate=   4.0kbits/s speed=0.204x elapsed=0:00:06.21    \nframe=   84 fps= 12 q=27.0 size=       1KiB time=00:00:01.40 bitrate=   3.6kbits/s speed=0.207x elapsed=0:00:06.76    \nframe=   90 fps= 12 q=26.0 size=       1KiB time=00:00:01.50 bitrate=   3.4kbits/s speed=0.206x elapsed=0:00:07.27    \nframe=   97 fps= 12 q=8.0 size=       1KiB time=00:00:01.61 bitrate=   3.1kbits/s speed=0.207x elapsed=0:00:07.79    \nframe=  104 fps= 13 q=25.0 size=       1KiB time=00:00:01.73 bitrate=   2.9kbits/s speed=0.209x elapsed=0:00:08.30    \nframe=  110 fps= 12 q=26.0 size=       1KiB time=00:00:01.83 bitrate=   2.8kbits/s speed=0.207x elapsed=0:00:08.83    \nframe=  117 fps= 13 q=27.0 size=       1KiB time=00:00:01.95 bitrate=   2.6kbits/s speed=0.208x elapsed=0:00:09.35    \nframe=  124 fps= 13 q=27.0 size=       1KiB time=00:00:02.06 bitrate=   2.5kbits/s speed=0.209x elapsed=0:00:09.87    \nframe=  130 fps= 13 q=27.0 size=    1792KiB time=00:00:02.16 bitrate=6775.4kbits/s speed=0.209x elapsed=0:00:10.38    \nframe=  137 fps= 13 q=27.0 size=    1792KiB time=00:00:02.28 bitrate=6429.2kbits/s speed=0.209x elapsed=0:00:10.90    \nframe=  143 fps= 13 q=26.0 size=    1792KiB time=00:00:02.38 bitrate=6159.5kbits/s speed=0.209x elapsed=0:00:11.42    \nframe=  149 fps= 12 q=26.0 size=    1792KiB time=00:00:02.48 bitrate=5911.4kbits/s speed=0.208x elapsed=0:00:11.94    \nframe=  156 fps= 13 q=27.0 size=    1792KiB time=00:00:02.60 bitrate=5646.2kbits/s speed=0.209x elapsed=0:00:12.46    \nframe=  163 fps= 13 q=28.0 size=    1792KiB time=00:00:02.71 bitrate=5403.7kbits/s speed=0.209x elapsed=0:00:12.99    \nframe=  170 fps= 13 q=28.0 size=    1792KiB time=00:00:02.83 bitrate=5181.2kbits/s speed=0.21x elapsed=0:00:13.51    \nframe=  177 fps= 13 q=26.0 size=    1792KiB time=00:00:02.95 bitrate=4976.3kbits/s speed=0.21x elapsed=0:00:14.05    \nframe=  183 fps= 13 q=26.0 size=    1792KiB time=00:00:03.05 bitrate=4813.1kbits/s speed=0.209x elapsed=0:00:14.57    \nframe=  190 fps= 13 q=26.0 size=    1792KiB time=00:00:03.16 bitrate=4635.8kbits/s speed=0.21x elapsed=0:00:15.09    \nframe=  196 fps= 13 q=26.0 size=    1792KiB time=00:00:03.26 bitrate=4493.9kbits/s speed=0.209x elapsed=0:00:15.61    \nframe=  202 fps= 13 q=26.0 size=    1792KiB time=00:00:03.36 bitrate=4360.4kbits/s speed=0.209x elapsed=0:00:16.14    \nframe=  208 fps= 12 q=26.0 size=    1792KiB time=00:00:03.46 bitrate=4234.6kbits/s speed=0.208x elapsed=0:00:16.65    \nframe=  214 fps= 12 q=26.0 size=    1792KiB time=00:00:03.56 bitrate=4115.9kbits/s speed=0.208x elapsed=0:00:17.17    \nframe=  220 fps= 12 q=25.0 size=    1792KiB time=00:00:03.66 bitrate=4003.7kbits/s speed=0.207x elapsed=0:00:17.71    \nframe=  227 fps= 12 q=25.0 size=    1792KiB time=00:00:03.78 bitrate=3880.2kbits/s speed=0.208x elapsed=0:00:18.22    \nframe=  234 fps= 12 q=25.0 size=    1792KiB time=00:00:03.90 bitrate=3764.1kbits/s speed=0.208x elapsed=0:00:18.75    \nframe=  241 fps= 13 q=27.0 size=    1792KiB time=00:00:04.01 bitrate=3654.8kbits/s speed=0.209x elapsed=0:00:19.25    \nframe=  247 fps= 12 q=28.0 size=    1792KiB time=00:00:04.11 bitrate=3566.0kbits/s speed=0.208x elapsed=0:00:19.77    \nframe=  254 fps= 13 q=28.0 size=    1792KiB time=00:00:04.23 bitrate=3467.7kbits/s speed=0.209x elapsed=0:00:20.29    \nframe=  262 fps= 13 q=25.0 size=    3584KiB time=00:00:04.36 bitrate=6723.7kbits/s speed=0.21x elapsed=0:00:20.81    \nframe=  269 fps= 13 q=8.0 size=    3584KiB time=00:00:04.48 bitrate=6548.7kbits/s speed=0.21x elapsed=0:00:21.32    \nframe=  275 fps= 13 q=25.0 size=    3584KiB time=00:00:04.58 bitrate=6405.8kbits/s speed=0.21x elapsed=0:00:21.83    \nframe=  276 fps= 12 q=25.0 size=    3584KiB time=00:00:04.60 bitrate=6382.6kbits/s speed=0.206x elapsed=0:00:22.35    \nframe=  276 fps= 12 q=25.0 size=    3584KiB time=00:00:04.60 bitrate=6382.6kbits/s speed=0.201x elapsed=0:00:22.88    \nframe=  276 fps= 12 q=25.0 size=    3584KiB time=00:00:04.60 bitrate=6382.6kbits/s speed=0.197x elapsed=0:00:23.40    \n[out#0/webm @ 0000027f1dec9540] video:4349KiB audio:0KiB subtitle:0KiB other streams:0KiB global headers:0KiB muxing overhead: 0.064041%\nframe=  300 fps= 13 q=26.0 Lsize=    4352KiB time=00:00:05.00 bitrate=7130.0kbits/s speed=0.21x elapsed=0:00:23.78    \n",
  "seconds": 24.03247594833374,
  "probe_out": {}
}